<?xml version="1.0" ?><!DOCTYPE svg  PUBLIC '-//W3C//DTD SVG 1.1//EN'  'http://www.w3.org/Graphics/SVG/1.1/DTD/svg11.dtd'><svg enable-background="new 0 0 24 24" height="24px" id="Layer_1" version="1.1" viewBox="0 0 24 24" width="24px" xml:space="preserve" xmlns="http://www.w3.org/2000/svg" xmlns:xlink="http://www.w3.org/1999/xlink"><path d="M21.8,4.8c-1.1-1.2-2.7-1.9-4.3-2l-0.2,0c-2,0-3.8,1-5,2.6C11.2,3.3,9.1,2,6.8,2c0,0-0.1,0-0.1,0C5,2,3.3,2.7,2.2,4  C1,5.2,0.4,6.9,0.5,8.6c0.2,3,1.7,4.5,3.1,5.8c1.6,1.6,3.1,2.9,2.6,6.7c0,0.6,0.3,1,0.8,1c0.2,0,0.3,0,0.6-0.1  c10.4-3.2,15.9-7.5,15.9-12.3l0-0.1C23.6,7.7,23,6.1,21.8,4.8z M7,21.5l0-0.5c0,0,0,0,0,0V21.5z"/></svg>